<svg xmlns="http://www.w3.org/2000/svg" width="259" height="258"><path d="M0 129.004v129.003l129.75-.253 129.75-.254.254-128.75L260.008 0H0v129.004m.485.496c0 70.95.119 100.122.265 64.828.145-35.295.146-93.345 0-129C.604 29.672.485 58.55.485 129.5M113 53.5V57H99v3.5c0 3.333-.167 3.5-3.5 3.5s-3.5.167-3.5 3.5-.167 3.5-3.5 3.5H85v14h-7v21.227l2.95-.433c2.756-.404 2.971-.197 3.25 3.136l.3 3.57h13.337c7.335 0 13.778-.27 14.318-.601.54-.331.838-3.429.663-6.885-.306-6.039-.22-6.299 2.182-6.661 4.76-.717 5-1.068 5-7.322 0-5.985.022-6.031 2.893-6.031 3.47 0 4.107-1.331 4.107-8.582 0-5.353.036-5.418 3-5.418 2.955 0 3.002-.083 3.125-5.5.069-3.025.181-6.062.25-6.75.069-.687 1.613-1.393 3.432-1.568 2.033-.195 3.506-.966 3.823-2 .284-.925.937-2.47 1.451-3.432.872-1.63-.089-1.75-14.073-1.75H113v3.5m-13.921 49.083c.048 1.165.285 1.402.604.605.289-.722.253-1.585-.079-1.917-.332-.332-.568.258-.525 1.312m36.277 3.166c-.63.413-1.305 3.451-1.5 6.751l-.356 6 3.182.308c2.946.286 3.206.062 3.5-3l.318-3.308 10.311-.286 10.31-.285-.31-3.215-.311-3.214-12-.251c-6.6-.139-12.515.086-13.144.5m-46.543 10.934c.721.289 1.584.253 1.916-.079.332-.332-.258-.568-1.312-.525-1.165.048-1.402.285-.604.604m43.266 6.9c.048 1.165.285 1.402.604.605.289-.722.253-1.585-.079-1.917-.332-.332-.568.258-.525 1.312m.079 7.417c0 1.375.227 1.938.504 1.25.278-.687.278-1.812 0-2.5-.277-.687-.504-.125-.504 1.25M78 140.5v6.5h3.5c3.885 0 3.974-.261 2.864-8.36-.588-4.292-.851-4.64-3.5-4.64-2.858 0-2.864.013-2.864 6.5m42.357.75c-.489.688-.881 2.15-.873 3.25.012 1.521.794 2.075 3.266 2.313 3.117.301 3.25.168 3.25-3.25 0-3.085-.319-3.563-2.378-3.563-1.307 0-2.777.563-3.265 1.25m-5.328 6.696c-1.934.493-2.507 1.33-2.633 3.842-.146 2.894.117 3.212 2.655 3.212 2.305 0 2.892.5 3.233 2.75.229 1.512.484-.036.566-3.441.083-3.405-.188-6.372-.6-6.592-.412-.221-1.862-.118-3.221.229M152.787 158c-.242 1.65-.069 3 .386 3s.827-1.35.827-3-.174-3-.387-3c-.212 0-.584 1.35-.826 3m-46.592.5c.02 1.65.244 2.204.498 1.231.254-.973.237-2.323-.037-3-.274-.677-.481.119-.461 1.769M92 165c0 2.667.333 3 3 3s3-.333 3-3-.333-3-3-3-3 .333-3 3m27.81 6.5c.362 3.099.74 3.5 3.299 3.5 2.637 0 2.891-.307 2.891-3.5 0-3.293-.195-3.5-3.299-3.5-3.182 0-3.285.125-2.891 3.5m14.19.167c0 3.037.267 3.333 3 3.333s3-.296 3-3.333c0-3.037-.267-3.334-3-3.334s-3 .297-3 3.334m-12.25 11.091c-1.252.278-1.75 1.367-1.75 3.831 0 3.209.203 3.427 3 3.214 2.657-.202 3-.593 3-3.409 0-3.278-1.209-4.312-4.25-3.636m-16.563 3.492c.275 2.858.705 3.288 3.563 3.563 3.117.301 3.25.168 3.25-3.25 0-3.417-.146-3.563-3.563-3.563-3.418 0-3.551.133-3.25 3.25m28.302 2.841c-.799 6.885-.089 8.222 4.104 7.737 2.291-.265 2.962-.948 3.491-3.556.36-1.776.263-2.987-.215-2.691-.478.295-.869-1.29-.869-3.522 0-3.813-.176-4.059-2.902-4.059-2.807 0-2.925.198-3.609 6.091m-27.41 12.492c.048 1.165.285 1.402.604.605.289-.722.253-1.585-.079-1.917-.332-.332-.568.258-.525 1.312m28 0c.048 1.165.285 1.402.604.605.289-.722.253-1.585-.079-1.917-.332-.332-.568.258-.525 1.312" fill="undefined" fill-rule="evenodd"/></svg>